<svg version="1.1" id="Layer_1" xmlns="http://www.w3.org/2000/svg" xmlns:xlink="http://www.w3.org/1999/xlink" x="0px" y="0px"
	 width="100%" viewBox="0 0 192 192" enable-background="new 0 0 192 192" xml:space="preserve">
<path fill="#EEEEEE" opacity="1.000000" stroke="none" 
	d="
M122.000000,193.000000 
	C81.359497,193.000000 41.218994,193.000000 1.039244,193.000000 
	C1.039244,129.067871 1.039244,65.135712 1.039244,1.101775 
	C64.890320,1.101775 128.780853,1.101775 192.835693,1.101775 
	C192.835693,64.999657 192.835693,128.999786 192.835693,193.000000 
	C169.469330,193.000000 145.984665,193.000000 122.000000,193.000000 
M128.334671,136.971710 
	C137.024673,136.615524 145.957077,139.209381 154.330063,134.820526 
	C154.793640,134.577530 155.655197,134.683685 156.143600,134.959763 
	C163.345474,139.030762 171.167801,136.680298 178.702316,137.000763 
	C180.035706,137.057480 182.585236,134.961349 182.579865,133.869156 
	C182.571777,132.221664 181.178787,129.741302 179.721649,129.101364 
	C175.690079,127.330833 173.352005,124.544228 172.091751,120.473625 
	C169.829605,113.166931 167.217331,105.959465 165.232773,98.581055 
	C164.557526,96.070564 164.702637,92.943771 165.582565,90.497795 
	C167.136719,86.177734 166.142166,83.390694 162.721512,80.472260 
	C160.362503,78.459618 158.658798,75.502136 157.174591,72.695915 
	C155.950592,70.381660 155.680725,67.582207 154.629593,65.152870 
	C152.698837,60.690590 152.160339,57.267097 158.541672,56.370251 
	C159.643143,56.215439 161.033676,53.779911 161.143845,52.311817 
	C161.228607,51.182453 159.513916,48.877079 158.596786,48.875729 
	C150.123138,48.863239 141.332275,46.278568 133.616623,51.248592 
	C131.686310,50.374748 129.918304,48.935707 128.093903,48.860222 
	C120.618652,48.550953 113.120651,48.501244 105.645622,48.766769 
	C104.420807,48.810280 102.440231,50.830029 102.309990,52.091396 
	C102.171478,53.432838 103.490646,55.480190 104.763489,56.279457 
	C106.590004,57.426399 108.951141,57.721947 111.444229,58.492252 
	C106.748367,70.279884 102.283623,81.487358 97.477524,93.551720 
	C92.510696,81.364616 87.904747,70.062996 83.187965,58.489426 
	C85.195534,57.789654 86.398445,57.222664 87.664520,56.959328 
	C90.432487,56.383606 92.838715,55.005939 91.800278,52.035435 
	C91.251289,50.465023 88.697571,48.813866 86.894684,48.617847 
	C82.450691,48.134678 77.762886,47.747028 73.460342,48.665924 
	C68.349625,49.757427 63.747807,49.707073 58.538761,48.796726 
	C51.585968,47.581646 44.256149,48.260651 37.111610,48.607327 
	C35.501247,48.685467 33.987251,50.749615 32.428894,51.899529 
	C33.718712,53.531982 34.695610,55.725048 36.373779,56.661755 
	C38.723419,57.973259 41.595470,58.348831 44.615574,59.233654 
	C42.904087,65.101463 42.128513,70.739471 39.653366,75.492409 
	C36.560074,81.432343 35.297543,87.334740 33.952030,93.877838 
	C31.123285,107.633759 27.013828,121.926956 12.866139,129.698624 
	C11.767491,130.302155 11.120340,132.958405 11.404103,134.442474 
	C11.615726,135.549255 13.692203,137.109177 14.899217,137.075394 
	C20.050636,136.931137 25.187572,136.269669 31.198036,135.717087 
	C34.922920,136.144730 39.717812,137.011230 44.525124,137.086685 
	C46.366814,137.115585 49.170036,135.781967 49.883919,134.282898 
	C51.072098,131.787857 49.465252,129.759033 46.645794,128.608124 
	C41.777271,126.620796 39.293282,122.724594 40.095245,117.487755 
	C41.494469,108.350807 42.536343,99.106461 48.464073,91.280357 
	C49.863285,89.433052 49.738312,86.331238 50.036472,83.774101 
	C50.454018,80.193054 50.611000,76.581619 50.879456,72.983185 
	C51.447235,72.939323 52.015015,72.895462 52.582794,72.851593 
	C53.399715,74.924309 54.232574,76.990906 55.031097,79.070679 
	C63.080090,100.034554 71.051949,121.028732 79.274590,141.924240 
	C80.134926,144.110535 82.468498,145.717087 84.118538,147.592621 
	C85.944206,145.730743 88.563118,144.191605 89.472343,141.956879 
	C98.184959,120.542702 106.603981,99.009125 115.121544,77.515472 
	C116.192497,74.812988 117.346497,72.143425 118.462013,69.458611 
	C119.107674,69.480934 119.753342,69.503250 120.399002,69.525574 
	C120.749794,73.859703 122.320297,78.572510 121.123833,82.426270 
	C119.808655,86.662415 120.591057,89.105995 122.986732,92.305344 
	C125.696510,95.924164 127.968185,99.970192 129.819519,104.104019 
	C131.575867,108.025726 132.561844,112.295074 133.851898,116.422386 
	C135.906967,122.997162 134.780579,125.705826 128.686783,128.970413 
	C124.728775,131.090820 124.470306,132.853668 128.334671,136.971710 
z"/>
<path fill="#2F444F" opacity="1.000000" stroke="none" 
	d="
M127.943954,136.836731 
	C124.470306,132.853668 124.728775,131.090820 128.686783,128.970413 
	C134.780579,125.705826 135.906967,122.997162 133.851898,116.422386 
	C132.561844,112.295074 131.575867,108.025726 129.819519,104.104019 
	C127.968185,99.970192 125.696510,95.924164 122.986732,92.305344 
	C120.591057,89.105995 119.808655,86.662415 121.123833,82.426270 
	C122.320297,78.572510 120.749794,73.859703 120.399002,69.525574 
	C119.753342,69.503250 119.107674,69.480934 118.462013,69.458611 
	C117.346497,72.143425 116.192497,74.812988 115.121544,77.515472 
	C106.603981,99.009125 98.184959,120.542702 89.472343,141.956879 
	C88.563118,144.191605 85.944206,145.730743 84.118546,147.592621 
	C82.468498,145.717087 80.134926,144.110535 79.274590,141.924240 
	C71.051949,121.028732 63.080090,100.034554 55.031097,79.070679 
	C54.232574,76.990906 53.399715,74.924309 52.582794,72.851593 
	C52.015015,72.895462 51.447235,72.939323 50.879456,72.983185 
	C50.611000,76.581619 50.454018,80.193054 50.036472,83.774101 
	C49.738312,86.331238 49.863285,89.433052 48.464073,91.280357 
	C42.536343,99.106461 41.494469,108.350807 40.095245,117.487755 
	C39.293282,122.724594 41.777271,126.620796 46.645794,128.608124 
	C49.465252,129.759033 51.072098,131.787857 49.883919,134.282898 
	C49.170036,135.781967 46.366814,137.115585 44.525124,137.086685 
	C39.717812,137.011230 34.922920,136.144730 31.198036,135.717087 
	C25.187572,136.269669 20.050636,136.931137 14.899217,137.075394 
	C13.692203,137.109177 11.615726,135.549255 11.404103,134.442474 
	C11.120340,132.958405 11.767491,130.302155 12.866139,129.698624 
	C27.013828,121.926956 31.123285,107.633759 33.952030,93.877838 
	C35.297543,87.334740 36.560074,81.432343 39.653366,75.492409 
	C42.128513,70.739471 42.904087,65.101463 44.615574,59.233654 
	C41.595470,58.348831 38.723419,57.973259 36.373779,56.661755 
	C34.695610,55.725048 33.718712,53.531982 32.428894,51.899529 
	C33.987251,50.749615 35.501247,48.685467 37.111610,48.607327 
	C44.256149,48.260651 51.585968,47.581646 58.538761,48.796726 
	C63.747807,49.707073 68.349625,49.757427 73.460342,48.665924 
	C77.762886,47.747028 82.450691,48.134678 86.894684,48.617847 
	C88.697571,48.813866 91.251289,50.465023 91.800278,52.035435 
	C92.838715,55.005939 90.432487,56.383606 87.664520,56.959328 
	C86.398445,57.222664 85.195534,57.789654 83.187965,58.489426 
	C87.904747,70.062996 92.510696,81.364616 97.477524,93.551720 
	C102.283623,81.487358 106.748367,70.279884 111.444229,58.492252 
	C108.951141,57.721947 106.590004,57.426399 104.763489,56.279457 
	C103.490646,55.480190 102.171478,53.432838 102.309990,52.091396 
	C102.440231,50.830029 104.420807,48.810280 105.645622,48.766769 
	C113.120651,48.501244 120.618652,48.550953 128.093903,48.860222 
	C129.918304,48.935707 131.686310,50.374748 133.616623,51.248592 
	C141.332275,46.278568 150.123138,48.863239 158.596786,48.875729 
	C159.513916,48.877079 161.228607,51.182453 161.143845,52.311817 
	C161.033676,53.779911 159.643143,56.215439 158.541672,56.370251 
	C152.160339,57.267097 152.698837,60.690590 154.629593,65.152870 
	C155.680725,67.582207 155.950592,70.381660 157.174591,72.695915 
	C158.658798,75.502136 160.362503,78.459618 162.721512,80.472260 
	C166.142166,83.390694 167.136719,86.177734 165.582565,90.497795 
	C164.702637,92.943771 164.557526,96.070564 165.232773,98.581055 
	C167.217331,105.959465 169.829605,113.166931 172.091751,120.473625 
	C173.352005,124.544228 175.690079,127.330833 179.721649,129.101364 
	C181.178787,129.741302 182.571777,132.221664 182.579865,133.869156 
	C182.585236,134.961349 180.035706,137.057480 178.702316,137.000763 
	C171.167801,136.680298 163.345474,139.030762 156.143600,134.959763 
	C155.655197,134.683685 154.793640,134.577530 154.330063,134.820526 
	C145.957077,139.209381 137.024673,136.615524 127.943954,136.836731 
M135.261871,54.955444 
	C134.995224,55.162918 134.835800,55.433559 135.016403,55.877388 
	C135.016403,55.877388 134.798660,55.739544 134.199097,55.778805 
	C133.444641,55.557159 132.690170,55.335510 131.639160,54.591286 
	C130.859711,53.981552 130.080276,53.371819 128.810577,52.211697 
	C127.162354,52.059353 125.514122,51.907009 123.109306,51.586529 
	C120.417671,51.654148 117.726036,51.721767 114.352066,51.425026 
	C111.423851,51.425026 108.495636,51.425026 105.567413,51.425026 
	C105.521759,52.033913 105.476112,52.642799 105.430458,53.251686 
	C107.060097,53.619137 108.689743,53.986584 110.521088,54.510349 
	C110.521088,54.510349 110.773148,54.470535 111.073242,54.831436 
	C111.348068,55.012386 111.648872,55.083256 112.458298,55.465511 
	C113.205727,56.851074 113.953156,58.236633 114.300827,59.983124 
	C114.220436,60.325008 114.140045,60.666889 113.658638,61.622486 
	C112.473419,64.748253 111.288208,67.874023 109.688309,71.616341 
	C105.712700,81.571602 101.737091,91.526871 97.406807,102.370285 
	C95.966904,99.566666 94.912239,97.892601 94.209549,96.081947 
	C90.316574,86.050621 86.588173,75.955009 82.648796,65.942245 
	C79.200172,57.176815 79.111794,57.215969 87.339401,53.203960 
	C87.498314,53.126472 87.458458,52.641399 87.621704,51.731110 
	C80.089806,52.650761 72.031082,48.822128 65.934921,55.984558 
	C60.831810,51.663155 44.070698,49.936760 36.070694,52.911606 
	C39.172012,54.007629 42.096565,54.654182 44.582302,56.070763 
	C45.981361,56.868057 47.810913,59.296391 47.474323,60.373852 
	C44.873558,68.699234 44.496017,77.963585 37.395374,85.202850 
	C37.597401,86.467636 37.799423,87.732430 38.000000,89.000000 
	C38.000000,89.000000 38.002594,88.999702 38.033958,89.856300 
	C37.996788,91.566109 37.959618,93.275925 37.992092,94.985794 
	C37.992092,94.985794 37.949303,94.930840 37.477551,95.406296 
	C37.304420,96.275208 37.131290,97.144119 36.776318,98.245499 
	C36.776318,98.245499 36.844120,98.532738 36.385799,99.035896 
	C36.260582,99.689613 36.135365,100.343330 35.825108,101.285614 
	C35.825108,101.285614 35.859730,101.626656 35.395260,102.101227 
	C35.256802,102.735802 35.118343,103.370377 34.800266,104.274956 
	C34.800266,104.274956 34.852634,104.594986 34.386124,105.082397 
	C34.239326,105.727287 34.092533,106.372169 33.765491,107.242874 
	C33.765491,107.242874 33.842026,107.521477 33.361870,108.011421 
	C33.175251,108.659126 32.988632,109.306839 32.398067,110.338715 
	C32.220768,111.050537 32.043468,111.762352 31.400623,112.853867 
	C31.289370,113.229706 31.178116,113.605537 30.681532,114.415474 
	C30.412022,115.127243 30.142509,115.839005 29.414499,116.919289 
	C29.291025,117.283257 29.167553,117.647217 28.993931,118.008392 
	C28.993931,118.008392 29.025429,118.047539 28.546110,118.380951 
	C28.325350,118.911491 28.104588,119.442024 27.377930,120.352158 
	C26.592585,121.601410 25.807240,122.850655 24.625158,124.237526 
	C24.365261,124.404762 24.241543,124.642769 23.726044,125.372116 
	C22.494158,126.641350 21.262272,127.910576 19.557661,129.266129 
	C19.251371,129.418640 19.051527,129.659500 18.376289,130.159393 
	C17.551327,130.720612 16.726366,131.281845 15.266835,132.077316 
	C15.333928,132.684464 15.434029,133.824875 15.463430,133.823044 
	C18.693878,133.623108 21.919043,133.337799 25.639477,132.969360 
	C25.777199,132.873886 25.914923,132.778427 26.475040,132.650574 
	C26.749052,132.512726 26.913107,132.292801 26.999447,132.005707 
	C26.999447,132.005707 26.992952,131.970840 27.488461,131.841537 
	C27.677650,131.569489 27.866840,131.297440 28.001694,131.001526 
	C28.001694,131.001526 28.025352,131.055969 28.514441,130.880188 
	C28.700005,130.596649 28.885569,130.313110 29.006536,130.010239 
	C29.006536,130.010239 29.020643,130.076172 29.756506,130.013672 
	C30.474270,130.142227 31.192034,130.270782 32.197296,130.932877 
	C33.364105,131.660095 34.530910,132.387299 36.380867,133.635101 
	C39.782738,133.635101 43.184612,133.635101 46.586483,133.635101 
	C46.640038,133.322845 46.693588,133.010590 46.747139,132.698318 
	C45.820652,132.214630 44.894161,131.730927 43.649273,130.986893 
	C43.649273,130.986893 43.242851,130.923859 42.949619,130.475510 
	C42.627899,130.337372 42.306179,130.199234 41.990471,129.998566 
	C41.990471,129.998566 41.931995,130.021530 41.757858,129.602280 
	C41.561035,129.338440 41.298061,129.209381 40.702282,128.711014 
	C40.401695,128.485016 40.101109,128.259033 39.708275,127.579590 
	C39.551933,127.286880 39.311180,127.107330 39.005875,127.002281 
	C39.005875,127.002281 38.963383,127.011314 38.843140,126.476883 
	C38.591721,126.220200 38.340302,125.963516 38.004562,125.043678 
	C37.596531,124.008087 37.188499,122.972496 36.888020,121.067932 
	C36.871403,118.729485 36.854782,116.391029 37.049862,113.434273 
	C37.085300,112.789528 37.120739,112.144783 37.587578,110.986931 
	C37.670853,110.338913 37.754128,109.690903 38.071590,108.528450 
	C38.096447,108.156334 38.121300,107.784210 38.561607,106.913620 
	C38.659424,106.288506 38.757240,105.663383 39.056255,104.610954 
	C39.056255,104.610954 39.055309,104.138634 39.503532,103.634720 
	C39.655891,102.760498 39.808250,101.886269 40.147945,100.676697 
	C40.147945,100.676697 40.113667,100.294113 40.570583,99.742821 
	C40.750267,98.815651 40.929951,97.888474 41.301193,96.744263 
	C41.301193,96.744263 41.268402,96.456627 41.639446,96.063362 
	C41.689026,95.714249 41.738605,95.365143 42.115303,94.422943 
	C43.406372,92.610390 44.697441,90.797836 46.572765,88.514168 
	C46.424820,86.604630 46.276871,84.695084 46.118603,82.375717 
	C46.118603,82.375717 45.971058,81.993225 46.093292,81.333740 
	C46.043262,80.891838 45.993233,80.449944 46.071568,79.567451 
	C46.071568,79.567451 46.069748,79.108551 46.479053,78.694603 
	C46.565224,78.134789 46.651394,77.574974 46.950459,76.442917 
	C47.009586,76.041313 47.068710,75.639717 47.501930,74.931023 
	C47.704521,74.646996 47.753963,74.338440 47.874191,73.405449 
	C47.943756,72.985046 48.013321,72.564644 48.564907,71.661407 
	C48.719582,70.776810 48.874256,69.892204 49.195297,68.691544 
	C49.195297,68.691544 49.208439,68.334618 49.671101,67.789131 
	C49.807167,66.863426 49.943233,65.937714 50.148216,64.327499 
	C50.177639,61.988312 51.042377,61.427998 52.891216,63.671669 
	C53.164783,64.243088 53.438351,64.814499 53.725616,65.722450 
	C53.725616,65.722450 53.886185,66.018532 53.879551,66.665031 
	C54.172852,67.223930 54.466152,67.782829 54.811066,68.693604 
	C54.811066,68.693604 54.989563,69.001205 54.966312,69.634010 
	C55.238636,70.186211 55.510960,70.738411 55.878113,71.887581 
	C56.198078,72.614777 56.518040,73.341965 56.855354,74.704483 
	C57.151310,75.252617 57.447266,75.800758 57.780022,76.700340 
	C57.780022,76.700340 57.949146,77.010597 57.935749,77.616051 
	C58.223671,78.125046 58.511593,78.634041 58.932751,78.969299 
	C58.932751,78.969299 58.782108,79.129799 58.800247,79.764519 
	C59.091560,80.316666 59.382874,80.868813 59.807720,82.137817 
	C67.735527,102.819756 75.663330,123.501701 83.591141,144.183640 
	C84.094116,144.117233 84.597092,144.050827 85.100067,143.984421 
	C85.795479,142.348740 86.544876,140.733627 87.177757,139.074081 
	C92.143051,126.053963 97.066071,113.017708 102.042435,100.001839 
	C105.734871,90.344124 109.487625,80.709480 113.773285,70.692825 
	C114.596535,68.915352 115.419785,67.137878 116.641609,65.005760 
	C116.715576,64.666649 116.789543,64.327545 117.089340,63.501789 
	C117.177917,63.156643 117.266495,62.811497 117.751266,62.073208 
	C117.837860,61.718216 117.924454,61.363224 118.339592,60.549465 
	C118.577782,60.258354 118.815971,59.967243 119.545303,60.016514 
	C119.943962,60.458790 120.342628,60.901066 120.785393,61.698784 
	C120.785393,61.698784 120.951187,62.016273 120.927063,62.661045 
	C121.173302,63.244610 121.419540,63.828175 121.731461,64.960342 
	C121.853096,65.307503 121.974731,65.654655 122.039734,66.622635 
	C122.292770,67.174271 122.545799,67.725914 122.840401,68.655182 
	C122.840401,68.655182 123.003960,68.998077 122.958191,69.667664 
	C123.287079,70.462509 123.615974,71.257355 124.001465,72.008850 
	C124.001465,72.008850 123.933456,72.029488 123.898056,72.712372 
	C124.218201,73.537262 124.538338,74.362144 124.973808,75.950432 
	C124.887993,78.483627 125.514954,81.343529 124.540512,83.469406 
	C123.248779,86.287537 123.641663,88.035049 125.554779,90.136131 
	C127.544792,92.321648 129.915543,94.517982 130.928558,97.165405 
	C133.482513,103.839912 135.501678,110.732002 137.476288,117.611198 
	C139.085892,123.218781 137.095001,127.824730 132.194092,130.915588 
	C131.175537,131.557968 130.167969,132.217758 129.155334,132.869522 
	C129.275269,133.268127 129.395187,133.666733 129.515121,134.065338 
	C138.048660,132.950424 147.162399,136.829163 155.130890,130.092438 
	C162.613129,136.699524 171.280075,133.239609 178.812225,133.788101 
	C175.680374,130.087250 171.573624,126.903717 169.755478,122.724518 
	C166.386108,114.979668 164.118896,106.716652 161.900574,98.531776 
	C161.176117,95.858803 161.416199,92.549202 162.316422,89.905792 
	C163.449524,86.578529 162.608109,84.859901 160.131119,82.658928 
	C157.778961,80.568871 155.826752,77.736664 154.497314,74.861511 
	C152.834167,71.264725 152.303116,67.152275 150.710251,63.513283 
	C148.507080,58.479904 150.062149,55.581993 155.740875,54.012966 
	C156.411682,53.386806 157.082489,52.760651 157.753281,52.134491 
	C156.771500,52.010338 155.789734,51.886185 154.089996,51.585144 
	C153.113174,51.642887 152.136353,51.700634 150.498596,51.557194 
	C150.278183,51.623932 150.057755,51.690674 149.107407,51.584755 
	C148.115997,51.640553 147.124588,51.696350 145.358673,51.423256 
	C142.861099,51.885204 140.363510,52.347149 137.920227,52.983978 
	C137.920227,52.983978 137.837967,52.820095 137.359497,52.945992 
	C137.044601,53.106266 136.844925,53.357929 136.767349,53.775356 
	C136.767349,53.775356 136.695908,53.753567 136.257721,53.931057 
	C135.982056,54.119873 135.813675,54.378536 135.796097,54.802368 
	C135.796097,54.802368 135.700348,54.759789 135.261871,54.955444 
z"/>
<path fill="#DAA915" opacity="1.000000" stroke="none" 
	d="
M25.021894,124.099907 
	C25.807240,122.850655 26.592585,121.601410 27.890427,120.014221 
	C28.610424,119.133377 28.817926,118.590454 29.025429,118.047539 
	C29.025429,118.047539 28.993931,118.008392 29.246777,117.826851 
	C29.624081,117.280464 29.748539,116.915619 29.872997,116.550774 
	C30.142509,115.839005 30.412022,115.127243 31.101139,114.007790 
	C31.635885,113.224792 31.751026,112.849487 31.866167,112.474174 
	C32.043468,111.762352 32.220768,111.050537 32.900887,109.953827 
	C33.549812,108.886459 33.695919,108.203964 33.842026,107.521477 
	C33.842026,107.521477 33.765491,107.242874 34.122437,106.912659 
	C34.603798,105.919960 34.728218,105.257477 34.852634,104.594986 
	C34.852634,104.594986 34.800266,104.274956 35.148613,103.924423 
	C35.617882,102.924820 35.738804,102.275734 35.859730,101.626656 
	C35.859730,101.626656 35.825108,101.285614 36.174271,100.913132 
	C36.630325,99.871353 36.737221,99.202042 36.844116,98.532738 
	C36.844120,98.532738 36.776318,98.245499 37.131279,97.911758 
	C37.640598,96.695618 37.794949,95.813232 37.949303,94.930840 
	C37.949303,94.930840 37.992092,94.985794 38.239227,94.746109 
	C38.325111,92.670853 38.163853,90.835281 38.002594,88.999702 
	C38.002594,88.999702 38.000000,89.000000 38.005966,88.570602 
	C37.968727,86.995079 37.925522,85.848953 37.882317,84.702835 
	C44.496017,77.963585 44.873558,68.699234 47.474323,60.373852 
	C47.810913,59.296391 45.981361,56.868057 44.582302,56.070763 
	C42.096565,54.654182 39.172012,54.007629 36.070694,52.911606 
	C44.070698,49.936760 60.831810,51.663155 65.934921,55.984558 
	C72.031082,48.822128 80.089806,52.650761 87.621704,51.731110 
	C87.458458,52.641399 87.498314,53.126472 87.339401,53.203960 
	C79.111794,57.215969 79.200172,57.176815 82.648796,65.942245 
	C86.588173,75.955009 90.316574,86.050621 94.209549,96.081947 
	C94.912239,97.892601 95.966904,99.566666 97.406807,102.370285 
	C101.737091,91.526871 105.712700,81.571602 110.284195,71.309235 
	C111.657890,71.022934 112.435699,71.043747 113.213509,71.064560 
	C109.487625,80.709480 105.734871,90.344124 102.042435,100.001839 
	C97.066071,113.017708 92.143051,126.053963 87.177757,139.074081 
	C86.544876,140.733627 85.795479,142.348740 85.100067,143.984421 
	C84.597092,144.050827 84.094116,144.117233 83.591141,144.183640 
	C75.663330,123.501701 67.735527,102.819756 59.810738,81.436768 
	C59.469872,80.200417 59.125992,79.665108 58.782108,79.129799 
	C58.782108,79.129799 58.932751,78.969299 58.912659,78.744263 
	C58.578091,78.016342 58.263618,77.513474 57.949146,77.010597 
	C57.949146,77.010597 57.780022,76.700340 57.816395,76.186600 
	C57.514511,75.138290 57.176258,74.603722 56.838005,74.069160 
	C56.518040,73.341965 56.198078,72.614777 55.880913,71.262299 
	C55.585667,70.091751 55.287617,69.546478 54.989563,69.001205 
	C54.989563,69.001205 54.811066,68.693604 54.836075,68.179642 
	C54.536121,67.116623 54.211155,66.567581 53.886185,66.018532 
	C53.886185,66.018532 53.725616,65.722450 53.784004,65.215942 
	C53.535088,64.148186 53.227783,63.586948 52.920479,63.025707 
	C51.042377,61.427998 50.177639,61.988312 49.836182,64.906067 
	C49.418915,66.434631 49.313679,67.384628 49.208443,68.334618 
	C49.208439,68.334618 49.195297,68.691544 48.846218,69.071457 
	C48.359055,70.348991 48.220970,71.246613 48.082882,72.144241 
	C48.013321,72.564644 47.943756,72.985046 47.593056,73.868515 
	C47.125923,74.608406 47.064560,74.910583 47.127834,75.238113 
	C47.068710,75.639717 47.009586,76.041313 46.639309,76.933685 
	C46.242023,77.985817 46.155888,78.547180 46.069748,79.108551 
	C46.069748,79.108551 46.071568,79.567451 45.800114,79.939972 
	C45.676125,80.872742 45.823589,81.432983 45.971054,81.993225 
	C45.971058,81.993225 46.118603,82.375717 46.073959,83.025497 
	C46.015713,85.445282 46.002110,87.215286 45.988510,88.985283 
	C44.697441,90.797836 43.406372,92.610390 41.758522,94.909760 
	C41.357292,95.749924 41.312847,96.103271 41.268402,96.456627 
	C41.268402,96.456627 41.301193,96.744263 40.920021,97.086365 
	C40.397121,98.383675 40.255394,99.338898 40.113667,100.294113 
	C40.113667,100.294113 40.147945,100.676697 39.801876,101.073227 
	C39.322308,102.359383 39.188808,103.249008 39.055309,104.138634 
	C39.055309,104.138634 39.056255,104.610954 38.727234,105.054688 
	C38.314194,106.136314 38.230175,106.774208 38.146152,107.412094 
	C38.121300,107.784210 38.096447,108.156334 37.726982,109.027893 
	C37.306980,110.184906 37.231579,110.842468 37.156181,111.500038 
	C37.120739,112.144783 37.085300,112.789528 36.704636,114.031769 
	C36.499760,117.065147 36.640110,119.501030 36.780464,121.936905 
	C37.188499,122.972496 37.596531,124.008087 38.106907,125.643959 
	C38.460629,126.499931 38.712006,126.755623 38.963383,127.011314 
	C38.963383,127.011314 39.005875,127.002281 39.086834,127.220612 
	C39.328278,127.690666 39.539188,127.888702 39.800518,128.033035 
	C40.101109,128.259033 40.401695,128.485016 40.961136,129.135681 
	C41.418610,129.773834 41.655941,129.927567 41.931995,130.021530 
	C41.931995,130.021530 41.990471,129.998566 42.140480,130.246033 
	C42.607941,130.636963 42.925396,130.780411 43.242851,130.923859 
	C43.242851,130.923859 43.649273,130.986893 43.692307,131.475525 
	C41.056129,132.347626 38.376923,132.731064 35.697716,133.114517 
	C34.530910,132.387299 33.364105,131.660095 31.938374,130.355484 
	C30.793182,129.877441 29.906912,129.976807 29.020643,130.076172 
	C29.020643,130.076172 29.006536,130.010239 28.805168,130.123047 
	C28.410984,130.509216 28.218168,130.782593 28.025352,131.055969 
	C28.025352,131.055969 28.001694,131.001526 27.801964,131.108780 
	C27.317638,131.401855 27.114544,131.653458 26.992952,131.970840 
	C26.992952,131.970840 26.999447,132.005707 26.800499,132.070114 
	C26.365795,132.264496 26.182827,132.447311 26.052649,132.682953 
	C25.914923,132.778427 25.777199,132.873886 24.938053,132.991760 
	C21.458220,132.623779 18.679811,132.233414 15.901403,131.843048 
	C16.726366,131.281845 17.551327,130.720612 18.882835,129.993134 
	C19.663778,129.671341 19.877447,129.455658 20.030388,129.179810 
	C21.262272,127.910576 22.494158,126.641350 24.155272,125.058472 
	C24.786520,124.568008 24.932318,124.353027 25.021894,124.099907 
z"/>
<path fill="#DAA915" opacity="1.000000" stroke="none" 
	d="
M113.493393,70.878693 
	C112.435699,71.043747 111.657890,71.022934 110.491539,71.000961 
	C111.288208,67.874023 112.473419,64.748253 114.072777,61.144142 
	C114.558144,60.317928 114.629364,59.970062 114.700584,59.622196 
	C113.953156,58.236633 113.205727,56.851074 112.086853,55.038101 
	C111.401329,54.563972 111.087234,54.517254 110.773148,54.470535 
	C110.773148,54.470535 110.521088,54.510349 110.726120,54.143890 
	C112.298904,53.114754 113.666649,52.452072 115.034401,51.789387 
	C117.726036,51.721767 120.417671,51.654148 123.702087,51.934902 
	C125.963524,52.442879 127.632179,52.602482 129.300827,52.762085 
	C130.080276,53.371819 130.859711,53.981552 131.852081,55.166161 
	C132.976212,55.740536 133.887436,55.740040 134.798660,55.739540 
	C134.798660,55.739544 135.016403,55.877388 135.155609,55.769096 
	C135.430008,55.360466 135.565186,55.060127 135.700348,54.759789 
	C135.700348,54.759789 135.796097,54.802368 136.034195,54.722252 
	C136.413498,54.345947 136.554703,54.049759 136.695908,53.753571 
	C136.695908,53.753567 136.767349,53.775356 137.024353,53.713337 
	C137.466904,53.374245 137.652435,53.097172 137.837967,52.820099 
	C137.837967,52.820095 137.920227,52.983978 138.322586,52.944870 
	C141.194351,52.521221 143.663773,52.136684 146.133179,51.752144 
	C147.124588,51.696350 148.115997,51.640553 149.541809,51.820259 
	C150.370636,51.956635 150.765091,51.857506 151.159531,51.758377 
	C152.136353,51.700634 153.113174,51.642887 154.507904,51.944359 
	C154.949066,52.862083 154.972321,53.420593 154.995575,53.979107 
	C150.062149,55.581993 148.507080,58.479904 150.710251,63.513283 
	C152.303116,67.152275 152.834167,71.264725 154.497314,74.861511 
	C155.826752,77.736664 157.778961,80.568871 160.131119,82.658928 
	C162.608109,84.859901 163.449524,86.578529 162.316422,89.905792 
	C161.416199,92.549202 161.176117,95.858803 161.900574,98.531776 
	C164.118896,106.716652 166.386108,114.979668 169.755478,122.724518 
	C171.573624,126.903717 175.680374,130.087250 178.812225,133.788101 
	C171.280075,133.239609 162.613129,136.699524 155.130890,130.092438 
	C147.162399,136.829163 138.048660,132.950424 129.515121,134.065338 
	C129.395187,133.666733 129.275269,133.268127 129.155334,132.869522 
	C130.167969,132.217758 131.175537,131.557968 132.194092,130.915588 
	C137.095001,127.824730 139.085892,123.218781 137.476288,117.611198 
	C135.501678,110.732002 133.482513,103.839912 130.928558,97.165405 
	C129.915543,94.517982 127.544792,92.321648 125.554779,90.136131 
	C123.641663,88.035049 123.248779,86.287537 124.540512,83.469406 
	C125.514954,81.343529 124.887993,78.483627 124.968285,75.214790 
	C124.619659,73.662598 124.276558,72.846039 123.933456,72.029488 
	C123.933456,72.029488 124.001465,72.008850 124.008568,71.690018 
	C123.678436,70.580147 123.341202,69.789116 123.003960,68.998077 
	C123.003960,68.998077 122.840401,68.655182 122.872604,68.147987 
	C122.635323,67.094467 122.365845,66.548141 122.096367,66.001816 
	C121.974731,65.654655 121.853096,65.307503 121.776962,64.348877 
	C121.532036,63.163700 121.241608,62.589989 120.951187,62.016273 
	C120.951187,62.016273 120.785393,61.698784 120.819382,61.219276 
	C120.253639,60.385220 119.653900,60.030674 119.054161,59.676128 
	C118.815971,59.967243 118.577782,60.258354 117.945831,60.954872 
	C117.486412,61.728970 117.420746,62.097656 117.355072,62.466347 
	C117.266495,62.811497 117.177917,63.156643 116.771271,63.917572 
	C116.383141,64.675705 116.313087,65.018059 116.243042,65.360405 
	C115.419785,67.137878 114.596535,68.915352 113.493393,70.878693 
z"/>
<path fill="#AC8F2C" opacity="1.000000" stroke="none" 
	d="
M114.693237,51.607208 
	C113.666649,52.452072 112.298904,53.114754 110.625275,54.065735 
	C108.689743,53.986584 107.060097,53.619137 105.430458,53.251686 
	C105.476112,52.642799 105.521759,52.033913 105.567413,51.425026 
	C108.495636,51.425026 111.423851,51.425026 114.693237,51.607208 
z"/>
<path fill="#D2A51A" opacity="1.000000" stroke="none" 
	d="
M36.039291,133.374817 
	C38.376923,132.731064 41.056129,132.347626 43.851505,131.605698 
	C44.894161,131.730927 45.820652,132.214630 46.747139,132.698318 
	C46.693588,133.010590 46.640038,133.322845 46.586483,133.635101 
	C43.184612,133.635101 39.782738,133.635101 36.039291,133.374817 
z"/>
<path fill="#AC8F2C" opacity="1.000000" stroke="none" 
	d="
M145.745926,51.587700 
	C143.663773,52.136684 141.194351,52.521221 138.295441,52.857430 
	C140.363510,52.347149 142.861099,51.885204 145.745926,51.587700 
z"/>
<path fill="#D2A51A" opacity="1.000000" stroke="none" 
	d="
M15.584120,131.960175 
	C18.679811,132.233414 21.458220,132.623779 24.690567,133.035736 
	C21.919043,133.337799 18.693878,133.623108 15.463430,133.823044 
	C15.434029,133.824875 15.333928,132.684464 15.584120,131.960175 
z"/>
<path fill="#AC8F2C" opacity="1.000000" stroke="none" 
	d="
M129.055695,52.486893 
	C127.632179,52.602482 125.963524,52.442879 124.080383,52.018970 
	C125.514122,51.907009 127.162354,52.059353 129.055695,52.486893 
z"/>
<path fill="#AC8F2C" opacity="1.000000" stroke="none" 
	d="
M155.368225,53.996037 
	C154.972321,53.420593 154.949066,52.862083 154.866882,52.032799 
	C155.789734,51.886185 156.771500,52.010338 157.753281,52.134491 
	C157.082489,52.760651 156.411682,53.386806 155.368225,53.996037 
z"/>
<path fill="#D2A51A" opacity="1.000000" stroke="none" 
	d="
M36.834244,121.502419 
	C36.640110,119.501030 36.499760,117.065147 36.598785,114.340927 
	C36.854782,116.391029 36.871403,118.729485 36.834244,121.502419 
z"/>
<path fill="#BB992A" opacity="1.000000" stroke="none" 
	d="
M46.280640,88.749725 
	C46.002110,87.215286 46.015713,85.445282 46.079121,83.230415 
	C46.276871,84.695084 46.424820,86.604630 46.280640,88.749725 
z"/>
<path fill="#D2A51A" opacity="1.000000" stroke="none" 
	d="
M38.018276,89.428001 
	C38.163853,90.835281 38.325111,92.670853 38.204407,94.746078 
	C37.959618,93.275925 37.996788,91.566109 38.018276,89.428001 
z"/>
<path fill="#D2A51A" opacity="1.000000" stroke="none" 
	d="
M37.638847,84.952843 
	C37.925522,85.848953 37.968727,86.995079 38.006691,88.569206 
	C37.799423,87.732430 37.597401,86.467636 37.638847,84.952843 
z"/>
<path fill="#AC8F2C" opacity="1.000000" stroke="none" 
	d="
M134.498871,55.759171 
	C133.887436,55.740040 132.976212,55.740536 132.000351,55.427448 
	C132.690170,55.335510 133.444641,55.557159 134.498871,55.759171 
z"/>
<path fill="#D2A51A" opacity="1.000000" stroke="none" 
	d="
M29.388575,130.044922 
	C29.906912,129.976807 30.793182,129.877441 31.794624,130.088715 
	C31.192034,130.270782 30.474270,130.142227 29.388575,130.044922 
z"/>
<path fill="#BB992A" opacity="1.000000" stroke="none" 
	d="
M49.439774,68.061874 
	C49.313679,67.384628 49.418915,66.434631 49.801727,65.248322 
	C49.943233,65.937714 49.807167,66.863426 49.439774,68.061874 
z"/>
<path fill="#D2A51A" opacity="1.000000" stroke="none" 
	d="
M39.279419,103.886673 
	C39.188808,103.249008 39.322308,102.359383 39.708206,101.240906 
	C39.808250,101.886269 39.655891,102.760498 39.279419,103.886673 
z"/>
<path fill="#D2A51A" opacity="1.000000" stroke="none" 
	d="
M37.713425,95.168564 
	C37.794949,95.813232 37.640598,96.695618 37.222202,97.795517 
	C37.131290,97.144119 37.304420,96.275208 37.713425,95.168564 
z"/>
<path fill="#BB992A" opacity="1.000000" stroke="none" 
	d="
M48.323895,71.902824 
	C48.220970,71.246613 48.359055,70.348991 48.763035,69.229485 
	C48.874256,69.892204 48.719582,70.776810 48.323895,71.902824 
z"/>
<path fill="#D2A51A" opacity="1.000000" stroke="none" 
	d="
M40.342125,100.018463 
	C40.255394,99.338898 40.397121,98.383675 40.824242,97.194885 
	C40.929951,97.888474 40.750267,98.815651 40.342125,100.018463 
z"/>
<path fill="#B1942B" opacity="1.000000" stroke="none" 
	d="
M122.981079,69.332870 
	C123.341202,69.789116 123.678436,70.580147 123.980270,71.711693 
	C123.615974,71.257355 123.287079,70.462509 122.981079,69.332870 
z"/>
<path fill="#B1942B" opacity="1.000000" stroke="none" 
	d="
M119.299728,59.846321 
	C119.653900,60.030674 120.253639,60.385220 120.797333,61.041553 
	C120.342628,60.901066 119.943962,60.458790 119.299728,59.846321 
z"/>
<path fill="#B1942B" opacity="1.000000" stroke="none" 
	d="
M123.915756,72.370926 
	C124.276558,72.846039 124.619659,73.662598 124.910614,74.833092 
	C124.538338,74.362144 124.218201,73.537262 123.915756,72.370926 
z"/>
<path fill="#B39429" opacity="1.000000" stroke="none" 
	d="
M57.942448,77.313324 
	C58.263618,77.513474 58.578091,78.016342 58.846039,78.831131 
	C58.511593,78.634041 58.223671,78.125046 57.942448,77.313324 
z"/>
<path fill="#D2A51A" opacity="1.000000" stroke="none" 
	d="
M33.601948,107.766449 
	C33.695919,108.203964 33.549812,108.886459 33.102859,109.761749 
	C32.988632,109.306839 33.175251,108.659126 33.601948,107.766449 
z"/>
<path fill="#D2A51A" opacity="1.000000" stroke="none" 
	d="
M28.785770,118.214249 
	C28.817926,118.590454 28.610424,119.133377 28.143375,119.824432 
	C28.104588,119.442024 28.325350,118.911491 28.785770,118.214249 
z"/>
<path fill="#D2A51A" opacity="1.000000" stroke="none" 
	d="
M36.614960,98.784317 
	C36.737221,99.202042 36.630325,99.871353 36.266792,100.768852 
	C36.135365,100.343330 36.260582,99.689613 36.614960,98.784317 
z"/>
<path fill="#D2A51A" opacity="1.000000" stroke="none" 
	d="
M35.627495,101.863937 
	C35.738804,102.275734 35.617882,102.924820 35.238422,103.789429 
	C35.118343,103.370377 35.256802,102.735802 35.627495,101.863937 
z"/>
<path fill="#D2A51A" opacity="1.000000" stroke="none" 
	d="
M34.619377,104.838692 
	C34.728218,105.257477 34.603798,105.919960 34.212559,106.799759 
	C34.092533,106.372169 34.239326,105.727287 34.619377,104.838692 
z"/>
<path fill="#D2A51A" opacity="1.000000" stroke="none" 
	d="
M38.353882,107.162857 
	C38.230175,106.774208 38.314194,106.136314 38.626637,105.268349 
	C38.757240,105.663383 38.659424,106.288506 38.353882,107.162857 
z"/>
<path fill="#D2A51A" opacity="1.000000" stroke="none" 
	d="
M37.371880,111.243484 
	C37.231579,110.842468 37.306980,110.184906 37.609894,109.285110 
	C37.754128,109.690903 37.670853,110.338913 37.371880,111.243484 
z"/>
<path fill="#B39429" opacity="1.000000" stroke="none" 
	d="
M58.791176,79.447159 
	C59.125992,79.665108 59.469872,80.200417 59.743973,81.078339 
	C59.382874,80.868813 59.091560,80.316666 58.791176,79.447159 
z"/>
<path fill="#BB992A" opacity="1.000000" stroke="none" 
	d="
M46.274403,78.901581 
	C46.155888,78.547180 46.242023,77.985817 46.532860,77.219803 
	C46.651394,77.574974 46.565224,78.134789 46.274403,78.901581 
z"/>
<path fill="#B39429" opacity="1.000000" stroke="none" 
	d="
M56.846680,74.386826 
	C57.176258,74.603722 57.514511,75.138290 57.797997,76.010872 
	C57.447266,75.800758 57.151310,75.252617 56.846680,74.386826 
z"/>
<path fill="#BB992A" opacity="1.000000" stroke="none" 
	d="
M46.032173,81.663483 
	C45.823589,81.432983 45.676125,80.872742 45.735931,80.160271 
	C45.993233,80.449944 46.043262,80.891838 46.032173,81.663483 
z"/>
<path fill="#AC8F2C" opacity="1.000000" stroke="none" 
	d="
M150.829071,51.657784 
	C150.765091,51.857506 150.370636,51.956635 149.906769,51.906593 
	C150.057755,51.690674 150.278183,51.623932 150.829071,51.657784 
z"/>
<path fill="#B39429" opacity="1.000000" stroke="none" 
	d="
M54.977936,69.317612 
	C55.287617,69.546478 55.585667,70.091751 55.833496,70.963821 
	C55.510960,70.738411 55.238636,70.186211 54.977936,69.317612 
z"/>
<path fill="#B1942B" opacity="1.000000" stroke="none" 
	d="
M122.068054,66.312225 
	C122.365845,66.548141 122.635323,67.094467 122.851814,67.959167 
	C122.545799,67.725914 122.292770,67.174271 122.068054,66.312225 
z"/>
<path fill="#B39429" opacity="1.000000" stroke="none" 
	d="
M53.882866,66.341782 
	C54.211155,66.567581 54.536121,67.116623 54.810272,68.003700 
	C54.466152,67.782829 54.172852,67.223930 53.882866,66.341782 
z"/>
<path fill="#B39429" opacity="1.000000" stroke="none" 
	d="
M52.905846,63.348686 
	C53.227783,63.586948 53.535088,64.148186 53.777153,65.047668 
	C53.438351,64.814499 53.164783,64.243088 52.905846,63.348686 
z"/>
<path fill="#B1942B" opacity="1.000000" stroke="none" 
	d="
M120.939125,62.338661 
	C121.241608,62.589989 121.532036,63.163700 121.744118,64.074577 
	C121.419540,63.828175 121.173302,63.244610 120.939125,62.338661 
z"/>
<path fill="#D2A51A" opacity="1.000000" stroke="none" 
	d="
M39.754395,127.806313 
	C39.539188,127.888702 39.328278,127.690666 39.076904,127.239937 
	C39.311180,127.107330 39.551933,127.286880 39.754395,127.806313 
z"/>
<path fill="#D2A51A" opacity="1.000000" stroke="none" 
	d="
M26.263844,132.666763 
	C26.182827,132.447311 26.365795,132.264496 26.784378,132.062668 
	C26.913107,132.292801 26.749052,132.512726 26.263844,132.666763 
z"/>
<path fill="#D2A51A" opacity="1.000000" stroke="none" 
	d="
M19.794025,129.222961 
	C19.877447,129.455658 19.663778,129.671341 19.173752,129.907776 
	C19.051527,129.659500 19.251371,129.418640 19.794025,129.222961 
z"/>
<path fill="#AC8F2C" opacity="1.000000" stroke="none" 
	d="
M110.923195,54.650986 
	C111.087234,54.517254 111.401329,54.563972 111.845535,54.827370 
	C111.648872,55.083256 111.348068,55.012386 110.923195,54.650986 
z"/>
<path fill="#D2A51A" opacity="1.000000" stroke="none" 
	d="
M41.844925,129.811905 
	C41.655941,129.927567 41.418610,129.773834 41.094460,129.387726 
	C41.298061,129.209381 41.561035,129.338440 41.844925,129.811905 
z"/>
<path fill="#D2A51A" opacity="1.000000" stroke="none" 
	d="
M28.269897,130.968079 
	C28.218168,130.782593 28.410984,130.509216 28.837467,130.132690 
	C28.885569,130.313110 28.700005,130.596649 28.269897,130.968079 
z"/>
<path fill="#D2A51A" opacity="1.000000" stroke="none" 
	d="
M43.096237,130.699677 
	C42.925396,130.780411 42.607941,130.636963 42.137474,130.277313 
	C42.306179,130.199234 42.627899,130.337372 43.096237,130.699677 
z"/>
<path fill="#D2A51A" opacity="1.000000" stroke="none" 
	d="
M27.240707,131.906189 
	C27.114544,131.653458 27.317638,131.401855 27.829132,131.120712 
	C27.866840,131.297440 27.677650,131.569489 27.240707,131.906189 
z"/>
<path fill="#AC8F2C" opacity="1.000000" stroke="none" 
	d="
M137.598724,52.883045 
	C137.652435,53.097172 137.466904,53.374245 137.020905,53.676147 
	C136.844925,53.357929 137.044601,53.106266 137.598724,52.883045 
z"/>
<path fill="#D2A51A" opacity="1.000000" stroke="none" 
	d="
M38.903259,126.744095 
	C38.712006,126.755623 38.460629,126.499931 38.149067,125.975533 
	C38.340302,125.963516 38.591721,126.220200 38.903259,126.744095 
z"/>
<path fill="#D2A51A" opacity="1.000000" stroke="none" 
	d="
M24.823526,124.168716 
	C24.932318,124.353027 24.786520,124.568008 24.419250,124.848190 
	C24.241543,124.642769 24.365261,124.404762 24.823526,124.168716 
z"/>
<path fill="#AC8F2C" opacity="1.000000" stroke="none" 
	d="
M136.476807,53.842316 
	C136.554703,54.049759 136.413498,54.345947 136.012436,54.674591 
	C135.813675,54.378536 135.982056,54.119873 136.476807,53.842316 
z"/>
<path fill="#D2A51A" opacity="1.000000" stroke="none" 
	d="
M29.643749,116.735031 
	C29.748539,116.915619 29.624081,117.280464 29.271851,117.828247 
	C29.167553,117.647217 29.291025,117.283257 29.643749,116.735031 
z"/>
<path fill="#AC8F2C" opacity="1.000000" stroke="none" 
	d="
M135.481110,54.857620 
	C135.565186,55.060127 135.430008,55.360466 135.039215,55.714081 
	C134.835800,55.433559 134.995224,55.162918 135.481110,54.857620 
z"/>
<path fill="#D2A51A" opacity="1.000000" stroke="none" 
	d="
M31.633396,112.664017 
	C31.751026,112.849487 31.635885,113.224792 31.293804,113.790741 
	C31.178116,113.605537 31.289370,113.229706 31.633396,112.664017 
z"/>
<path fill="#AC8F2C" opacity="1.000000" stroke="none" 
	d="
M114.500702,59.802658 
	C114.629364,59.970062 114.558144,60.317928 114.273285,60.837280 
	C114.140045,60.666889 114.220436,60.325008 114.500702,59.802658 
z"/>
<path fill="#B1942B" opacity="1.000000" stroke="none" 
	d="
M117.553169,62.269775 
	C117.420746,62.097656 117.486412,61.728970 117.781563,61.184258 
	C117.924454,61.363224 117.837860,61.718216 117.553169,62.269775 
z"/>
<path fill="#B1942B" opacity="1.000000" stroke="none" 
	d="
M116.442322,65.183083 
	C116.313087,65.018059 116.383141,64.675705 116.658356,64.160896 
	C116.789543,64.327545 116.715576,64.666649 116.442322,65.183083 
z"/>
<path fill="#BB992A" opacity="1.000000" stroke="none" 
	d="
M41.453926,96.259995 
	C41.312847,96.103271 41.357292,95.749924 41.594963,95.206299 
	C41.738605,95.365143 41.689026,95.714249 41.453926,96.259995 
z"/>
<path fill="#BB992A" opacity="1.000000" stroke="none" 
	d="
M47.314880,75.084564 
	C47.064560,74.910583 47.125923,74.608406 47.481094,74.168472 
	C47.753963,74.338440 47.704521,74.646996 47.314880,75.084564 
z"/>
</svg>